<svg width="14" height="14" viewBox="0 0 14 14" fill="none" xmlns="http://www.w3.org/2000/svg">
<g clip-path="url(#clip0_14901_569)">
<path d="M11.6666 1.74992H11.0833V0.583252H9.91663V1.74992H4.08329V0.583252H2.91663V1.74992H2.33329C1.69163 1.74992 1.16663 2.27492 1.16663 2.91659V12.2499C1.16663 12.8916 1.69163 13.4166 2.33329 13.4166H11.6666C12.3083 13.4166 12.8333 12.8916 12.8333 12.2499V2.91659C12.8333 2.27492 12.3083 1.74992 11.6666 1.74992ZM11.6666 12.2499H2.33329V4.66659H11.6666V12.2499Z" fill="#1C4980"/>
<path fill-rule="evenodd" clip-rule="evenodd" d="M3.49996 6.99992C3.49996 6.67775 3.76113 6.41659 4.08329 6.41659H5.83329C6.15546 6.41659 6.41663 6.67775 6.41663 6.99992C6.41663 7.32209 6.15546 7.58325 5.83329 7.58325H4.08329C3.76113 7.58325 3.49996 7.32209 3.49996 6.99992ZM7.58329 6.99992C7.58329 6.67775 7.84446 6.41659 8.16663 6.41659H9.91663C10.2388 6.41659 10.5 6.67775 10.5 6.99992C10.5 7.32209 10.2388 7.58325 9.91663 7.58325H8.16663C7.84446 7.58325 7.58329 7.32209 7.58329 6.99992ZM3.49996 9.33325C3.49996 9.01109 3.76113 8.74992 4.08329 8.74992H5.83329C6.15546 8.74992 6.41663 9.01109 6.41663 9.33325C6.41663 9.65542 6.15546 9.91659 5.83329 9.91659H4.08329C3.76113 9.91659 3.49996 9.65542 3.49996 9.33325ZM7.58329 9.33325C7.58329 9.01109 7.84446 8.74992 8.16663 8.74992H9.91663C10.2388 8.74992 10.5 9.01109 10.5 9.33325C10.5 9.65542 10.2388 9.91659 9.91663 9.91659H8.16663C7.84446 9.91659 7.58329 9.65542 7.58329 9.33325Z" fill="#1C4980"/>
</g>
<defs>
<clipPath id="clip0_14901_569">
<rect width="14" height="14" fill="white"/>
</clipPath>
</defs>
</svg>
