<svg width="40" height="40" viewBox="0 0 40 40" fill="none" xmlns="http://www.w3.org/2000/svg">
<rect width="40" height="40" rx="8" fill="#EBE8FD"/>
<mask id="mask0_14901_495" style="mask-type:alpha" maskUnits="userSpaceOnUse" x="10" y="10" width="20" height="20">
<rect x="10" y="10" width="20" height="20" fill="#D9D9D9"/>
</mask>
<g mask="url(#mask0_14901_495)">
<path d="M10.6787 26.9208V24.4082C10.6787 23.905 10.8089 23.4426 11.0692 23.0209C11.3295 22.5992 11.6753 22.2773 12.1067 22.0553C12.9778 21.6215 13.8643 21.2952 14.7664 21.0766C15.6684 20.858 16.5845 20.7487 17.5148 20.7487C18.4514 20.7487 19.3707 20.8572 20.2729 21.0741C21.1751 21.2911 22.0584 21.6165 22.9228 22.0504C23.3542 22.2719 23.7 22.593 23.9604 23.0138C24.2207 23.4346 24.3508 23.8993 24.3508 24.4079V26.9208H10.6787ZM26.0922 26.9208V24.2564C26.0922 23.632 25.9237 23.0303 25.5868 22.4512C25.2498 21.8721 24.7639 21.3562 24.1289 20.9036C24.8007 20.9936 25.4358 21.1368 26.0342 21.3332C26.6327 21.5296 27.1961 21.7687 27.7245 22.0504C28.2377 22.3281 28.6321 22.656 28.9076 23.0338C29.1832 23.4116 29.3209 23.8242 29.3209 24.2714V26.9208H26.0922ZM17.5148 19.9154C16.5715 19.9154 15.766 19.5815 15.0983 18.9138C14.4306 18.2461 14.0967 17.4406 14.0967 16.4974C14.0967 15.5541 14.4306 14.7487 15.0983 14.0809C15.766 13.4132 16.5715 13.0793 17.5148 13.0793C18.458 13.0793 19.2635 13.4132 19.9312 14.0809C20.5989 14.7487 20.9328 15.5541 20.9328 16.4974C20.9328 17.4406 20.5989 18.2461 19.9312 18.9138C19.2635 19.5815 18.458 19.9154 17.5148 19.9154ZM26.0922 16.4973C26.0922 17.4373 25.7576 18.2419 25.0884 18.9113C24.4192 19.5807 23.6147 19.9154 22.675 19.9154C22.5184 19.9154 22.3236 19.8972 22.0909 19.8608C21.8581 19.8245 21.6586 19.7821 21.4926 19.7338C21.8742 19.2827 22.1666 18.7799 22.3696 18.2255C22.5727 17.671 22.6742 17.0952 22.6742 16.4981C22.6742 15.901 22.5727 15.325 22.3696 14.77C22.1666 14.2151 21.8742 13.712 21.4926 13.2609C21.6903 13.1882 21.8864 13.1397 22.0809 13.1156C22.2753 13.0914 22.4723 13.0793 22.6718 13.0793C23.6124 13.0793 24.4176 13.414 25.0875 14.0834C25.7573 14.7527 26.0922 15.5574 26.0922 16.4973ZM12.5745 25.025H22.455V24.4331C22.455 24.2835 22.4168 24.1476 22.3404 24.0252C22.264 23.9028 22.1633 23.8077 22.0383 23.7397C21.3082 23.378 20.5662 23.105 19.8123 22.9208C19.0584 22.7367 18.2925 22.6446 17.5148 22.6446C16.7436 22.6446 15.9778 22.7367 15.2172 22.9208C14.4566 23.105 13.7146 23.378 12.9912 23.7397C12.8662 23.8077 12.7655 23.9028 12.6891 24.0252C12.6127 24.1476 12.5745 24.2835 12.5745 24.4331V25.025ZM17.514 18.0943C17.9529 18.0943 18.3289 17.938 18.642 17.6254C18.9551 17.3129 19.1117 16.9371 19.1117 16.4982C19.1117 16.0592 18.9554 15.6832 18.6428 15.3701C18.3302 15.057 17.9545 14.9004 17.5155 14.9004C17.0766 14.9004 16.7006 15.0567 16.3875 15.3693C16.0744 15.6819 15.9178 16.0576 15.9178 16.4966C15.9178 16.9355 16.0741 17.3115 16.3867 17.6246C16.6993 17.9377 17.075 18.0943 17.514 18.0943Z" fill="#6548EE"/>
</g>
</svg>
