<svg width="20" height="20" viewBox="0 0 20 20" fill="none" xmlns="http://www.w3.org/2000/svg">
<g clip-path="url(#clip0_14901_584)">
<path d="M10.0003 4.10623L7.64331 6.46326L8.82182 7.64177L11.1788 5.28474C12.1511 4.31247 13.7421 4.31247 14.7144 5.28474C15.6867 6.25702 15.6867 7.84801 14.7144 8.82028L12.3574 11.1773L13.5359 12.3558L15.8929 9.99879C17.5192 8.37244 17.5192 5.73258 15.8929 4.10623C14.2665 2.47989 11.6267 2.47989 10.0003 4.10623ZM11.1788 12.3558L8.82182 14.7128C7.84955 15.6851 6.25856 15.6851 5.28629 14.7128C4.31402 13.7406 4.31402 12.1496 5.28629 11.1773L7.64331 8.82028L6.4648 7.64177L4.10778 9.99879C2.48143 11.6251 2.48143 14.265 4.10778 15.8913C5.73412 17.5177 8.37399 17.5177 10.0003 15.8913L12.3574 13.5343L11.1788 12.3558ZM7.05406 11.7666L11.7681 7.05251L12.9466 8.23102L8.23257 12.9451L7.05406 11.7666Z" fill="#1C4980"/>
</g>
<defs>
<clipPath id="clip0_14901_584">
<rect width="20" height="20" fill="white"/>
</clipPath>
</defs>
</svg>
