<svg width="21" height="20" viewBox="0 0 21 20" fill="none" xmlns="http://www.w3.org/2000/svg">
<g clip-path="url(#clip0_14901_618)">
<path d="M10.1808 4.10623L7.82373 6.46326L9.00224 7.64177L11.3593 5.28474C12.3315 4.31247 13.9225 4.31247 14.8948 5.28474C15.8671 6.25702 15.8671 7.84801 14.8948 8.82028L12.5378 11.1773L13.7163 12.3558L16.0733 9.99879C17.6997 8.37244 17.6997 5.73258 16.0733 4.10623C14.447 2.47989 11.8071 2.47989 10.1808 4.10623ZM11.3593 12.3558L9.00224 14.7128C8.02997 15.6851 6.43898 15.6851 5.46671 14.7128C4.49444 13.7406 4.49444 12.1496 5.46671 11.1773L7.82373 8.82028L6.64522 7.64177L4.2882 9.99879C2.66185 11.6251 2.66185 14.265 4.2882 15.8913C5.91454 17.5177 8.55441 17.5177 10.1808 15.8913L12.5378 13.5343L11.3593 12.3558ZM7.23448 11.7666L11.9485 7.05251L13.127 8.23102L8.41299 12.9451L7.23448 11.7666Z" fill="#1C4980"/>
</g>
<defs>
<clipPath id="clip0_14901_618">
<rect width="20" height="20" fill="white" transform="translate(0.18042)"/>
</clipPath>
</defs>
</svg>
